<?xml version="1.0" encoding="UTF-8"?>
<svg version="1.1" xmlns="http://www.w3.org/2000/svg" width="128" height="128">
<path d="M0 0 C42.24 0 84.48 0 128 0 C128 42.24 128 84.48 128 128 C85.76 128 43.52 128 0 128 C0 85.76 0 43.52 0 0 Z " fill="#FDFEFE" transform="translate(0,0)"/>
<path d="M0 0 C3.74619345 2.45884175 6.85088437 5.54047523 9.94921875 8.76171875 C12.13307852 10.75092669 12.13307852 10.75092669 14.8359375 10.47265625 C17.58748297 9.36586472 18.93434835 8.13747059 20.9609375 5.9921875 C25.39274624 1.84848869 29.35316506 1.40726556 35.2734375 1.4921875 C31.8541367 7.0643814 29.08373119 10.77770605 22.5859375 12.4296875 C19.12308632 13.14409811 19.12308632 13.14409811 17.7734375 15.9296875 C17.03490013 18.59667081 17.03490013 18.59667081 18.2734375 21.4921875 C19.47365465 33.75263353 19.25598463 46.09010607 11.86328125 56.47265625 C10.70230114 57.84349283 9.49190267 59.17218357 8.2734375 60.4921875 C7.12198342 63.73462568 7.17026696 66.8258621 7.2109375 70.2421875 C7.21996094 71.22703125 7.22898437 72.211875 7.23828125 73.2265625 C7.24988281 73.97421875 7.26148437 74.721875 7.2734375 75.4921875 C6.9434375 74.8321875 6.6134375 74.1721875 6.2734375 73.4921875 C5.6134375 73.4921875 4.9534375 73.4921875 4.2734375 73.4921875 C4.28503906 74.38421875 4.29664062 75.27625 4.30859375 76.1953125 C4.31761719 77.36578125 4.32664062 78.53625 4.3359375 79.7421875 C4.34753906 80.90234375 4.35914062 82.0625 4.37109375 83.2578125 C4.2734375 86.4921875 4.2734375 86.4921875 3.7421875 88.5546875 C3.09828317 91.21615875 3.42028412 93.52942263 3.7109375 96.2421875 C3.86369141 97.71945313 3.86369141 97.71945313 4.01953125 99.2265625 C4.14521484 100.34804687 4.14521484 100.34804687 4.2734375 101.4921875 C3.6134375 101.1621875 2.9534375 100.8321875 2.2734375 100.4921875 C2.2734375 99.5021875 2.2734375 98.5121875 2.2734375 97.4921875 C1.6134375 97.4921875 0.9534375 97.4921875 0.2734375 97.4921875 C0.8113785 109.13370076 0.8113785 109.13370076 3.2734375 120.4921875 C0.9634375 120.4921875 -1.3465625 120.4921875 -3.7265625 120.4921875 C-4.7165625 116.2021875 -5.7065625 111.9121875 -6.7265625 107.4921875 C-7.7165625 109.1421875 -8.7065625 110.7921875 -9.7265625 112.4921875 C-11.2890625 114.8046875 -11.2890625 114.8046875 -12.7265625 116.4921875 C-13.3865625 116.4921875 -14.0465625 116.4921875 -14.7265625 116.4921875 C-14.93410156 115.9353125 -15.14164063 115.3784375 -15.35546875 114.8046875 C-17.51265949 109.46135312 -20.07840124 105.5361683 -24.0078125 101.33203125 C-25.7265625 99.4921875 -25.7265625 99.4921875 -28.1640625 96.3671875 C-33.8671222 89.96863272 -39.18709038 86.6386907 -47.7265625 85.4921875 C-47.7265625 84.8321875 -47.7265625 84.1721875 -47.7265625 83.4921875 C-47.1284375 83.4303125 -46.5303125 83.3684375 -45.9140625 83.3046875 C-42.78799637 82.14357722 -42.1934474 80.42595731 -40.7265625 77.4921875 C-40.02833633 75.83849393 -39.35157645 74.17491736 -38.7265625 72.4921875 C-39.3865625 72.4921875 -40.0465625 72.4921875 -40.7265625 72.4921875 C-40.7265625 71.5021875 -40.7265625 70.5121875 -40.7265625 69.4921875 C-42.0465625 69.1621875 -43.3665625 68.8321875 -44.7265625 68.4921875 C-45.72765765 65.18147912 -45.83012384 62.19133981 -45.7890625 58.7421875 C-45.78003906 57.75734375 -45.77101563 56.7725 -45.76171875 55.7578125 C-45.75011719 55.01015625 -45.73851563 54.2625 -45.7265625 53.4921875 C-48.44014907 52.40936781 -49.47343536 52.3854729 -52.21264648 53.5402832 C-53.12344971 54.07741943 -54.03425293 54.61455566 -54.97265625 55.16796875 C-55.97490234 55.74869141 -56.97714844 56.32941406 -58.00976562 56.92773438 C-59.05068359 57.54712891 -60.09160156 58.16652344 -61.1640625 58.8046875 C-63.22369332 60.01179245 -65.28484006 61.21631539 -67.34765625 62.41796875 C-68.2595874 62.95848877 -69.17151855 63.49900879 -70.11108398 64.0559082 C-72.59978008 65.42256545 -75.06937957 66.50012857 -77.7265625 67.4921875 C-77.7265625 66.8321875 -77.7265625 66.1721875 -77.7265625 65.4921875 C-75.82024403 64.21633184 -73.84862722 63.03776309 -71.85546875 61.90234375 C-70.629533 61.19340138 -69.40362232 60.48441565 -68.17773438 59.77539062 C-66.23250194 58.66252986 -64.2855797 57.55270623 -62.33764648 56.44458008 C-60.46420236 55.37543186 -58.59722066 54.29562133 -56.73046875 53.21484375 C-55.60455322 52.57297119 -54.4786377 51.93109863 -53.31860352 51.26977539 C-50.45755799 49.6910595 -50.45755799 49.6910595 -49.7265625 46.4921875 C-50.38391185 44.4891058 -51.05192152 42.48951171 -51.7265625 40.4921875 C-53.0008721 29.41240089 -51.09277213 20.5825311 -44.58984375 11.51171875 C-33.42924322 -1.80551957 -16.40337473 -7.66983733 0 0 Z " fill="#26F6EE" transform="translate(81.7265625,7.5078125)"/>
<path d="M0 0 C5.59731932 -0.28951652 9.1683016 -0.18452849 14 3 C16.0625 5.0625 16.0625 5.0625 18 8 C18.44730469 8.67804687 18.89460938 9.35609375 19.35546875 10.0546875 C24.82853659 19.40642806 23.6574714 29.64080377 22 40 C23.32 38.02 24.64 36.04 26 34 C27.04976964 37.14930893 27.10131595 39.38814456 27.0625 42.6875 C27.05347656 43.68136719 27.04445313 44.67523438 27.03515625 45.69921875 C27.02355469 46.45847656 27.01195313 47.21773437 27 48 C26.67 47.34 26.34 46.68 26 46 C25.34 46 24.68 46 24 46 C24.01160156 46.89203125 24.02320312 47.7840625 24.03515625 48.703125 C24.04417969 49.87359375 24.05320312 51.0440625 24.0625 52.25 C24.07410156 53.41015625 24.08570312 54.5703125 24.09765625 55.765625 C24 59 24 59 23.46875 61.0625 C22.82484567 63.72397125 23.14684662 66.03723513 23.4375 68.75 C23.53933594 69.73484375 23.64117187 70.7196875 23.74609375 71.734375 C23.82988281 72.48203125 23.91367188 73.2296875 24 74 C23.34 73.67 22.68 73.34 22 73 C22 72.01 22 71.02 22 70 C21.34 70 20.68 70 20 70 C20.537941 81.64151326 20.537941 81.64151326 23 93 C20.69 93 18.38 93 16 93 C15.01 88.71 14.02 84.42 13 80 C12.01 81.65 11.02 83.3 10 85 C8.4375 87.3125 8.4375 87.3125 7 89 C6.34 89 5.68 89 5 89 C4.73445313 88.39671875 4.46890625 87.7934375 4.1953125 87.171875 C3.84210938 86.37265625 3.48890625 85.5734375 3.125 84.75 C2.60292969 83.56664063 2.60292969 83.56664063 2.0703125 82.359375 C1.09586095 80.21131392 0.07013571 78.10170798 -1 76 C-0.34 76 0.32 76 1 76 C0.93039063 74.42798828 0.93039063 74.42798828 0.859375 72.82421875 C0.82185452 71.44534099 0.78545464 70.06643242 0.75 68.6875 C0.71648438 67.99720703 0.68296875 67.30691406 0.6484375 66.59570312 C0.609375 64.57421875 0.609375 64.57421875 1 61 C3.41800828 58.50139144 5.60306554 57.60659544 9 57 C8.67 56.34 8.34 55.68 8 55 C9.92576115 52.56070254 11.80090595 50.19909405 14 48 C13.21625 47.9175 12.4325 47.835 11.625 47.75 C9 47 9 47 7.6875 44.9375 C7.3471875 43.9784375 7.3471875 43.9784375 7 43 C10.75 41.875 10.75 41.875 13 43 C12.67 42.34 12.34 41.68 12 41 C9.97536745 40.34786708 9.97536745 40.34786708 8 40 C8 39.01 8 38.02 8 37 C7.34 36.67 6.68 36.34 6 36 C8.31 36 10.62 36 13 36 C12.071875 35.690625 11.14375 35.38125 10.1875 35.0625 C8.125 34.375 6.0625 33.6875 4 33 C4 32.34 4 31.68 4 31 C4.99 31 5.98 31 7 31 C7 30.01 7 29.02 7 28 C7.66 27.67 8.32 27.34 9 27 C7.7625 25.9790625 7.7625 25.9790625 6.5 24.9375 C4 22 4 22 3.6875 18.1875 C3.790625 17.135625 3.89375 16.08375 4 15 C4.99 15 5.98 15 7 15 C7.33 16.32 7.66 17.64 8 19 C9.98 19 11.96 19 14 19 C14 18.34 14 17.68 14 17 C15.65 17.33 17.3 17.66 19 18 C18.67 17.34 18.34 16.68 18 16 C17.01 15.67 16.02 15.34 15 15 C15.33 14.01 15.66 13.02 16 12 C13.03 11.67 10.06 11.34 7 11 C7 10.34 7 9.68 7 9 C6.34 9 5.68 9 5 9 C5 9.66 5 10.32 5 11 C3.35 11 1.7 11 0 11 C-1.125 9.4375 -1.125 9.4375 -2 7 C-1.125 3.25 -1.125 3.25 0 0 Z " fill="#35F8F3" transform="translate(62,35)"/>
<path d="M0 0 C2.2557675 1.53131909 4.03704473 3.09009757 6 5 C5.6875 7.375 5.6875 7.375 5 10 C2 12 2 12 -0.0625 11.6875 C-2 11 -2 11 -4 10 C-7.00270424 9.78819099 -9.99319496 9.91298635 -13 10 C-14.32 10 -15.64 10 -17 10 C-22.64608923 10.82268366 -26.41774363 14.82297969 -30 19 C-32.70498921 23.27414557 -34.57144167 27.61348776 -36.0625 32.4375 C-37.16228892 35.44358971 -38.23756721 36.44613156 -41 38 C-41.66 38 -42.32 38 -43 38 C-46.5927934 30.45513386 -46.21666082 20.32542564 -43.5 12.5 C-39.9143424 4.92608464 -33.62367553 0.84792333 -26.078125 -2.2734375 C-16.83208554 -5.50607536 -8.76778523 -4.23505675 0 0 Z " fill="#F8FEFD" transform="translate(77,16)"/>
<path d="M0 0 C5.59731932 -0.28951652 9.1683016 -0.18452849 14 3 C16.0625 5.0625 16.0625 5.0625 18 8 C18.44730469 8.67804687 18.89460938 9.35609375 19.35546875 10.0546875 C24.55269326 18.93509912 24.0733853 28.23598258 21.875 38.0625 C20.310512 43.05853006 18.58175436 45.43421756 14 48 C11.25 48.0625 11.25 48.0625 9 47 C7.6875 44.9375 7.6875 44.9375 7 43 C10.75 41.875 10.75 41.875 13 43 C12.67 42.34 12.34 41.68 12 41 C9.97536745 40.34786708 9.97536745 40.34786708 8 40 C8 39.01 8 38.02 8 37 C7.34 36.67 6.68 36.34 6 36 C8.31 36 10.62 36 13 36 C12.071875 35.690625 11.14375 35.38125 10.1875 35.0625 C8.125 34.375 6.0625 33.6875 4 33 C4 32.34 4 31.68 4 31 C4.99 31 5.98 31 7 31 C7 30.01 7 29.02 7 28 C7.66 27.67 8.32 27.34 9 27 C7.7625 25.9790625 7.7625 25.9790625 6.5 24.9375 C4 22 4 22 3.6875 18.1875 C3.790625 17.135625 3.89375 16.08375 4 15 C4.99 15 5.98 15 7 15 C7.33 16.32 7.66 17.64 8 19 C9.98 19 11.96 19 14 19 C14 18.34 14 17.68 14 17 C15.65 17.33 17.3 17.66 19 18 C18.67 17.34 18.34 16.68 18 16 C17.01 15.67 16.02 15.34 15 15 C15.33 14.01 15.66 13.02 16 12 C13.03 11.67 10.06 11.34 7 11 C7 10.34 7 9.68 7 9 C6.34 9 5.68 9 5 9 C5 9.66 5 10.32 5 11 C3.35 11 1.7 11 0 11 C-1.125 9.4375 -1.125 9.4375 -2 7 C-1.125 3.25 -1.125 3.25 0 0 Z " fill="#EFFEFD" transform="translate(62,35)"/>
<path d="M0 0 C3.11299584 1.18590318 4.39720592 2.61793824 5.89453125 5.58203125 C8.31266403 13.5864387 7.39027579 22.02216963 3.6953125 29.42578125 C2.625 31 2.625 31 0.625 32 C0.52703125 30.72125 0.4290625 29.4425 0.328125 28.125 C0.17793525 26.41659156 0.02684552 24.70826207 -0.125 23 C-0.2178125 21.74123047 -0.2178125 21.74123047 -0.3125 20.45703125 C-0.80336286 15.18025546 -1.85955926 11.3252633 -4.64160156 6.7890625 C-5.59495653 4.46343493 -5.30435327 3.30195541 -4.375 1 C-2.375 0 -2.375 0 0 0 Z " fill="#F2FEFD" transform="translate(89.375,32)"/>
<path d="M0 0 C0.66 0.33 1.32 0.66 2 1 C-1.96 4.465 -1.96 4.465 -6 8 C-5.505 8.99 -5.505 8.99 -5 10 C-5.9075 10.61875 -6.815 11.2375 -7.75 11.875 C-11.98252948 15.48568865 -13.78643516 19.62564142 -15 25 C-15.48991032 31.72764171 -15.54742647 38.39513093 -14 45 C-12.515 44.505 -12.515 44.505 -11 44 C-11 44.66 -11 45.32 -11 46 C-10.34 46.66 -9.68 47.32 -9 48 C-9.66 49.32 -10.32 50.64 -11 52 C-11.71478516 51.77981201 -12.42957031 51.55962402 -13.16601562 51.33276367 C-16.80944669 50.90495556 -18.21327331 51.81894067 -21.34375 53.67578125 C-22.34277344 54.25650391 -23.34179688 54.83722656 -24.37109375 55.43554688 C-25.40363281 56.05494141 -26.43617187 56.67433594 -27.5 57.3125 C-29.55055072 58.51953453 -31.60258372 59.72405524 -33.65625 60.92578125 C-34.56181641 61.46630127 -35.46738281 62.00682129 -36.40039062 62.5637207 C-38.88292827 63.93531809 -41.34538732 65.00990607 -44 66 C-44 65.34 -44 64.68 -44 64 C-42.09368153 62.72414434 -40.12206472 61.54557559 -38.12890625 60.41015625 C-36.9029705 59.70121388 -35.67705982 58.99222815 -34.45117188 58.28320312 C-32.50593944 57.17034236 -30.5590172 56.06051873 -28.61108398 54.95239258 C-26.73763986 53.88324436 -24.87065816 52.80343383 -23.00390625 51.72265625 C-21.87799072 51.08078369 -20.7520752 50.43891113 -19.59204102 49.77758789 C-16.73099549 48.198872 -16.73099549 48.198872 -16 45 C-16.65734935 42.9969183 -17.32535902 40.99732421 -18 39 C-19.27568194 27.9082812 -17.50033021 18.72573859 -10.546875 9.87890625 C-7.31871235 6.16491757 -4.11090712 2.74060475 0 0 Z " fill="#4EF8F1" transform="translate(48,9)"/>
<path d="M0 0 C0.94238698 2.82716095 1.13465647 4.63176123 1.125 7.5625 C1.12757812 8.34753906 1.13015625 9.13257812 1.1328125 9.94140625 C1 12 1 12 0 14 C-0.66 14 -1.32 14 -2 14 C-2.33 13.01 -2.66 12.02 -3 11 C-3.99 11.99 -4.98 12.98 -6 14 C-5.34 10.37 -4.68 6.74 -4 3 C-5.1254191 4.60387267 -6.25031972 6.20810916 -7.375 7.8125 C-8.00148438 8.70582031 -8.62796875 9.59914063 -9.2734375 10.51953125 C-10.53550239 12.33267878 -11.77458808 14.16188211 -13 16 C-14.80746134 14.19253866 -14.17303483 11.49554219 -14.1875 9.0625 C-14.20167969 7.98097656 -14.21585938 6.89945312 -14.23046875 5.78515625 C-14 3 -14 3 -12 1 C-9.94140625 0.5859375 -9.94140625 0.5859375 -7.5625 0.375 C-6.78003906 0.30023438 -5.99757813 0.22546875 -5.19140625 0.1484375 C-3.46418814 0.03144233 -1.73117598 0 0 0 Z " fill="#EFFEFC" transform="translate(77,93)"/>
<path d="M0 0 C-4.78510361 6.67062457 -8.92831739 9.44088223 -17 11 C-17 6.27350947 -16.10874559 5.3752095 -13 2 C-9.24058158 -0.50627895 -4.33039363 -2.16519681 0 0 Z " fill="#48FAF4" transform="translate(117,10)"/>
<path d="M0 0 C0.33 0.66 0.66 1.32 1 2 C1.66 2 2.32 2 3 2 C3.33 1.34 3.66 0.68 4 0 C3.59057783 8.46139151 1.29242582 15.96789533 -4.8125 22.125 C-5.534375 22.74375 -6.25625 23.3625 -7 24 C-7 22.35 -7 20.7 -7 19 C-6.01 18.67 -5.02 18.34 -4 18 C-1.19512073 12.06660154 -0.38701063 6.51245481 0 0 Z " fill="#3DF8F4" transform="translate(96,44)"/>
<path d="M0 0 C0.66 0.33 1.32 0.66 2 1 C-1.96 4.465 -1.96 4.465 -6 8 C-5.67 8.66 -5.34 9.32 -5 10 C-5.886875 10.5775 -6.77375 11.155 -7.6875 11.75 C-12.41385604 15.60068912 -13.9918244 21.42864556 -16 27 C-17.48582354 22.62230515 -16.3232659 19.94408609 -14.578125 15.80859375 C-11.09477239 9.60926076 -5.91556383 3.94370922 0 0 Z " fill="#4AF7F0" transform="translate(48,9)"/>
<path d="M0 0 C0.66 0.33 1.32 0.66 2 1 C1.26532365 3.82914839 0.46581614 6.46032588 -1 9 C-4.1875 10 -4.1875 10 -7 10 C-7.33 9.34 -7.66 8.68 -8 8 C-5.58443874 4.80800833 -3.31996462 2.25283313 0 0 Z " fill="#EEFEFC" transform="translate(78,82)"/>
<path d="M0 0 C0.33 0.99 0.66 1.98 1 3 C-2.12092434 4.84033976 -5.24738217 6.67106256 -8.375 8.5 C-9.26445312 9.02464844 -10.15390625 9.54929687 -11.0703125 10.08984375 C-11.92109375 10.58613281 -12.771875 11.08242187 -13.6484375 11.59375 C-14.82672119 12.28500977 -14.82672119 12.28500977 -16.02880859 12.99023438 C-18 14 -18 14 -20 14 C-20 13.34 -20 12.68 -20 12 C-18.1640625 10.67138672 -18.1640625 10.67138672 -15.625 9.1796875 C-14.72265625 8.64472656 -13.8203125 8.10976562 -12.890625 7.55859375 C-11.93671875 7.00300781 -10.9828125 6.44742188 -10 5.875 C-9.04609375 5.31167969 -8.0921875 4.74835938 -7.109375 4.16796875 C-4.74337273 2.77202741 -2.3735318 1.38308728 0 0 Z " fill="#50F6EF" transform="translate(24,61)"/>
<path d="M0 0 C2.72169138 2.72169138 2.32658194 4.45214454 2.5 8.25 C2.71305772 12.87335262 3.36892748 16.65924249 5 21 C4.01 20.67 3.02 20.34 2 20 C-0.04102015 15.49894232 -0.21732794 11.5183808 -0.125 6.625 C-0.10695313 5.37976562 -0.08890625 4.13453125 -0.0703125 2.8515625 C-0.04710938 1.91054688 -0.02390625 0.96953125 0 0 Z " fill="#73F8F6" transform="translate(30,34)"/>
<path d="M0 0 C-4.58154261 2.39542583 -9.0276578 4.50829734 -14 6 C-13.6875 4.125 -13.6875 4.125 -13 2 C-9.24058158 -0.50627895 -4.33039363 -2.16519681 0 0 Z " fill="#3CF7F2" transform="translate(117,10)"/>
<path d="M0 0 C1.32 0.33 2.64 0.66 4 1 C3.01 1.495 3.01 1.495 2 2 C2 2.66 2 3.32 2 4 C3.32 4.33 4.64 4.66 6 5 C6 5.66 6 6.32 6 7 C3.01758453 7.77321882 0.02419525 8.41196203 -3 9 C-2.505 8.443125 -2.01 7.88625 -1.5 7.3125 C0.24754367 4.61837017 0.26218749 3.14624993 0 0 Z " fill="#48FAF3" transform="translate(75,46)"/>
<path d="M0 0 C0 0.99 0 1.98 0 3 C-2.3129482 5.3129482 -3.47904875 5.49580975 -6.625 6.125 C-7.44226563 6.29257812 -8.25953125 6.46015625 -9.1015625 6.6328125 C-10.04128906 6.81457031 -10.04128906 6.81457031 -11 7 C-11 6.34 -11 5.68 -11 5 C-9.730447 4.35165346 -8.45930294 3.70642185 -7.1875 3.0625 C-6.47980469 2.70285156 -5.77210937 2.34320313 -5.04296875 1.97265625 C-3 1 -3 1 0 0 Z " fill="#86F9F6" transform="translate(114,11)"/>
<path d="M0 0 C0.66 0.99 1.32 1.98 2 3 C1.02471263 4.33617352 0.04466681 5.6688751 -0.9375 7 C-1.75541016 8.11375 -1.75541016 8.11375 -2.58984375 9.25 C-3.05519531 9.8275 -3.52054687 10.405 -4 11 C-4.33 11 -4.66 11 -5 11 C-5 9.35 -5 7.7 -5 6 C-4.01 5.67 -3.02 5.34 -2 5 C-0.78130071 2.49552484 -0.78130071 2.49552484 0 0 Z " fill="#5AF8F3" transform="translate(94,57)"/>
<path d="M0 0 C1.99097846 2.98646769 2.94124926 5.59687262 4 9 C2.68 9 1.36 9 0 9 C0 6.03 0 3.06 0 0 Z " fill="#D9FDFB" transform="translate(79,119)"/>
</svg>
